<svg width="127" height="19" viewBox="0 0 127 19" fill="none" xmlns="http://www.w3.org/2000/svg">
    <path
        d="M34.8504 10.508C34.8139 10.9076 34.7555 11.3144 34.6898 11.714C34.6169 12.1135 34.522 12.5131 34.4126 12.8981C34.2958 13.2831 34.1572 13.6391 34.004 13.9515C33.7851 14.4092 33.5078 14.8015 33.1649 15.1284C32.8146 15.448 32.4206 15.7168 31.9756 15.9348C31.6472 16.0946 31.3043 16.2181 30.9468 16.298C30.5965 16.3852 30.239 16.4433 29.8742 16.4796C29.5167 16.5159 29.1445 16.5305 28.7724 16.5305C28.4076 16.5305 28.0501 16.5305 27.6925 16.5305H21.5781V2.18262H27.6925C28.2836 2.18262 28.8819 2.21168 29.4948 2.26979C30.1077 2.32791 30.6914 2.45141 31.2459 2.64756C31.8004 2.84371 32.3112 3.1125 32.7782 3.46848C33.2451 3.81718 33.6318 4.28213 33.9383 4.85604C34.2666 5.5026 34.5147 6.24361 34.6752 7.07179C34.8358 7.89997 34.9087 8.67729 34.9087 9.3965C34.9014 9.73794 34.8868 10.1084 34.8504 10.508ZM31.3262 7.60938C31.2021 6.98461 30.9978 6.43975 30.706 5.97481C30.363 5.42269 29.918 5.07398 29.3853 4.92142C28.8527 4.76886 28.2836 4.68895 27.678 4.68895H24.628V14.0169H27.678C28.0209 14.0169 28.4076 13.9806 28.8381 13.9079C29.2613 13.8353 29.6261 13.719 29.9326 13.5592C30.2463 13.3848 30.509 13.1306 30.7133 12.7891C30.9103 12.4477 31.0708 12.0772 31.1875 11.6776C31.3043 11.2781 31.3845 10.8712 31.4356 10.4572C31.4867 10.0431 31.5086 9.67983 31.5159 9.36018C31.5086 8.81532 31.4502 8.23414 31.3262 7.60938ZM40.2424 16.5159C39.8484 16.5159 39.4617 16.5159 39.0604 16.5014C38.6664 16.4942 38.2797 16.4433 37.9003 16.3416C37.2363 16.1672 36.7328 15.7967 36.3826 15.2374C36.0324 14.6707 35.8646 14.0677 35.8646 13.4212C35.8646 12.9199 35.974 12.4259 36.1783 11.9392C36.3899 11.4524 36.7037 11.0456 37.1195 10.7332C37.3093 10.5879 37.5354 10.4789 37.7908 10.399C38.0535 10.3191 38.3235 10.261 38.608 10.2247C38.8926 10.1884 39.1698 10.1666 39.4398 10.1593C39.7171 10.152 39.9652 10.152 40.1986 10.152H43.7593V9.97768C43.7593 9.60718 43.7082 9.30933 43.6061 9.08412C43.5112 8.86618 43.3653 8.69182 43.1683 8.56832C42.9713 8.44482 42.7378 8.36491 42.4678 8.32859C42.1906 8.29226 41.8914 8.27773 41.5631 8.27773H36.6745V6.04019H41.5631C41.7674 6.04019 41.9644 6.04019 42.1614 6.04746C42.3511 6.05472 42.5554 6.06199 42.7524 6.06199C43.6426 6.09105 44.4087 6.27993 45.0362 6.62137C45.6637 6.97008 46.1234 7.58758 46.4152 8.49567C46.532 8.85165 46.5976 9.20762 46.6195 9.54906C46.6414 9.89777 46.6487 10.2537 46.6487 10.6242V16.5159H40.2424ZM43.7666 12.3896H39.9287C39.6222 12.3896 39.3669 12.4695 39.1553 12.622C38.9437 12.7819 38.8415 13.0216 38.8415 13.3485C38.8415 13.5737 38.8853 13.7481 38.9801 13.8716C39.075 13.9951 39.199 14.0823 39.345 14.1404C39.4982 14.1985 39.666 14.2348 39.8557 14.2493C40.0454 14.2639 40.2278 14.2711 40.3957 14.2711H43.7593L43.7666 12.3896ZM53.0404 16.5305C52.3253 16.5305 51.676 16.407 51.1068 16.1527C50.5304 15.8984 50.1072 15.419 49.8372 14.6998C49.7205 14.3511 49.6475 14.0096 49.6257 13.6536C49.5965 13.2977 49.5819 12.9417 49.5819 12.5857V8.27773H47.7432V6.04019H49.5819V2.18262H52.464V6.04019H55.1418V8.285H52.464V12.099C52.464 12.3315 52.464 12.6148 52.4713 12.9562C52.4786 13.3049 52.5515 13.5737 52.6975 13.7771C52.8288 13.9515 52.9893 14.075 53.1936 14.1549C53.3979 14.2348 53.6095 14.2857 53.843 14.3075C54.0765 14.3293 54.3027 14.3293 54.5362 14.322C54.7696 14.3075 54.9666 14.3002 55.1418 14.3002V16.5377L53.0404 16.5305ZM60.3149 16.5159C59.9282 16.5159 59.5342 16.5159 59.1329 16.5014C58.7389 16.4942 58.3449 16.4433 57.9728 16.3416C57.3088 16.1672 56.8054 15.804 56.4551 15.2374C56.1122 14.6707 55.9371 14.0677 55.9371 13.4212C55.9371 12.9199 56.0392 12.4259 56.2508 11.9392C56.4624 11.4524 56.7762 11.0529 57.1921 10.7332C57.3818 10.5879 57.608 10.4789 57.8633 10.399C58.126 10.3191 58.396 10.261 58.6805 10.2247C58.9651 10.1884 59.2424 10.1666 59.5123 10.1593C59.7896 10.152 60.0377 10.152 60.2712 10.1448H63.8318V9.97042C63.8318 9.59991 63.7808 9.30206 63.6786 9.07685C63.5765 8.85165 63.4305 8.68456 63.2335 8.56106C63.0365 8.43756 62.803 8.35764 62.5331 8.32132C62.2558 8.285 61.9566 8.27047 61.621 8.27047H56.7324V6.03293H61.621C61.8253 6.03293 62.0223 6.03293 62.2193 6.04019C62.409 6.04746 62.6133 6.05472 62.8103 6.04746C63.7005 6.07652 64.4666 6.2654 65.0941 6.60684C65.7216 6.95555 66.1813 7.57305 66.4731 8.48115C66.5899 8.83712 66.6556 9.19309 66.6774 9.53453C66.6993 9.87597 66.7139 10.2392 66.7066 10.6097V16.5014H60.3149V16.5159ZM63.8391 12.3896H60.0012C59.6947 12.3896 59.4394 12.4695 59.2278 12.622C59.0162 12.7819 58.914 13.0216 58.914 13.3485C58.914 13.5737 58.9578 13.7553 59.0527 13.8716C59.1475 13.9951 59.2715 14.0823 59.4248 14.1404C59.578 14.1985 59.7458 14.2348 59.9355 14.2493C60.1252 14.2639 60.3076 14.2711 60.4828 14.2711H63.8464L63.8391 12.3896Z"
        fill="white" />
    <path
        d="M78.6777 16.5305C78.561 16.2036 78.488 15.8621 78.4588 15.5207C78.4297 15.1792 78.3932 14.8305 78.3494 14.4891C78.2764 13.828 78.1597 13.2831 77.9919 12.8472C77.824 12.4114 77.5906 12.0627 77.2914 11.8084C76.985 11.5469 76.6055 11.3652 76.1459 11.2563C75.6862 11.1473 75.1244 11.0964 74.4604 11.0964H71.9942V16.5377H68.9297V2.18262H75.978C76.5107 2.18262 77.0579 2.19715 77.6124 2.23347C78.167 2.26979 78.6996 2.35697 79.2031 2.50227C80.0568 2.74927 80.7207 3.20694 81.195 3.88257C81.6693 4.55819 81.9101 5.32098 81.9101 6.18549C81.9101 7.17349 81.6985 8.03799 81.2826 8.779C80.8667 9.52 80.1589 10.0431 79.1666 10.3627C79.4803 10.4789 79.7503 10.5879 79.9765 10.6969C80.2027 10.8059 80.3997 10.9366 80.5675 11.0819C80.7426 11.2345 80.8958 11.4088 81.0272 11.6195C81.1585 11.8302 81.2826 12.0917 81.4139 12.4041C81.6182 12.8763 81.7276 13.363 81.7495 13.8643C81.7714 14.3656 81.8079 14.8668 81.8736 15.3681C81.9174 15.7386 82.0049 16.1309 82.1289 16.5305H78.6777ZM78.3348 5.61157C78.2181 5.36457 78.0648 5.18295 77.8678 5.05219C77.6781 4.92142 77.4373 4.82698 77.1674 4.77613C76.8901 4.72527 76.5982 4.69622 76.2845 4.69622H71.9869V8.58285H76.2772C76.985 8.58285 77.5249 8.43755 77.9189 8.15423C78.3129 7.86364 78.5026 7.33331 78.5026 6.55599C78.5099 6.16369 78.4515 5.85131 78.3348 5.61157ZM93.6573 13.6754C93.3801 14.3293 92.986 14.8814 92.4899 15.3245C91.9937 15.7677 91.4027 16.1091 90.7169 16.3343C90.031 16.5668 89.2795 16.683 88.4623 16.683C86.7038 16.683 85.3467 16.2036 84.3835 15.2519C83.4204 14.2929 82.9389 12.9417 82.9389 11.1909C82.9389 10.37 83.0775 9.63624 83.3475 8.97514C83.6174 8.31405 84.0041 7.75467 84.493 7.30426C84.9819 6.85384 85.5656 6.50513 86.2514 6.25813C86.9373 6.0184 87.6815 5.8949 88.4841 5.8949C90.2426 5.8949 91.6143 6.37437 92.5993 7.34058C93.5844 8.30679 94.0805 9.66529 94.0805 11.4379C94.0805 12.2733 93.9419 13.0216 93.6573 13.6754ZM90.9795 10.0431C90.892 9.66529 90.7533 9.33112 90.549 9.04779C90.3447 8.76447 90.0821 8.53926 89.7391 8.37944C89.4035 8.21961 88.9949 8.13244 88.506 8.13244C87.988 8.13244 87.5648 8.21961 87.2292 8.3867C86.8935 8.55379 86.6309 8.78626 86.4338 9.07685C86.2368 9.36744 86.1055 9.70888 86.0252 10.0939C85.945 10.4862 85.9085 10.9003 85.9085 11.358C85.9085 11.7939 85.9523 12.2007 86.0471 12.5785C86.142 12.9562 86.2879 13.2759 86.4995 13.5519C86.7111 13.828 86.9811 14.0459 87.3167 14.1985C87.6524 14.351 88.0683 14.431 88.5498 14.431C89.0387 14.431 89.4473 14.3438 89.7756 14.1767C90.104 14.0096 90.3666 13.7771 90.5709 13.5011C90.7679 13.2178 90.9066 12.8836 90.9868 12.4913C91.0671 12.099 91.1036 11.6922 91.1036 11.2708C91.1036 10.8349 91.0598 10.4281 90.9795 10.0431ZM105.879 13.7771C105.521 14.5835 104.93 15.2446 104.113 15.7604C103.522 16.1382 102.931 16.3561 102.325 16.4288C101.72 16.5014 101.085 16.5377 100.407 16.5377H95.7003V2.18262H98.5824V6.04019H101.151C102.807 6.04019 104.099 6.47608 105.025 7.34058C105.952 8.21235 106.419 9.47641 106.419 11.1473C106.419 12.0917 106.236 12.9707 105.879 13.7771ZM102.873 9.05506C102.428 8.53926 101.72 8.27773 100.742 8.27773H98.5824V14.2857H100.742C101.676 14.2857 102.377 13.9951 102.836 13.4139C103.303 12.8327 103.537 12.1062 103.537 11.2272C103.537 10.2973 103.311 9.57085 102.873 9.05506ZM118.057 13.6754C117.772 14.3293 117.385 14.8814 116.889 15.3245C116.393 15.7677 115.802 16.1091 115.123 16.3343C114.438 16.5668 113.686 16.683 112.869 16.683C111.11 16.683 109.753 16.2036 108.79 15.2519C107.827 14.3002 107.345 12.9417 107.345 11.1909C107.345 10.37 107.484 9.63624 107.754 8.97514C108.031 8.31405 108.411 7.75467 108.9 7.30426C109.388 6.85384 109.972 6.50513 110.658 6.25813C111.344 6.01113 112.088 5.8949 112.891 5.88763C114.649 5.88763 116.021 6.3671 117.006 7.33331C117.991 8.29952 118.48 9.65803 118.487 11.4234C118.48 12.2733 118.341 13.0216 118.057 13.6754ZM115.379 10.0431C115.291 9.65803 115.153 9.32385 114.948 9.04053C114.751 8.7572 114.481 8.53926 114.146 8.37217C113.81 8.21235 113.394 8.12517 112.913 8.12517C112.395 8.12517 111.971 8.21235 111.636 8.37944C111.3 8.54653 111.037 8.779 110.84 9.06959C110.643 9.36018 110.512 9.70162 110.432 10.0866C110.352 10.4789 110.315 10.893 110.315 11.3507C110.315 11.7866 110.359 12.1934 110.454 12.5712C110.549 12.949 110.695 13.2686 110.906 13.5447C111.118 13.8207 111.388 14.0387 111.723 14.1912C112.059 14.3438 112.468 14.4237 112.956 14.4237C113.445 14.4237 113.854 14.3365 114.182 14.1694C114.511 14.0023 114.781 13.7771 114.978 13.4938C115.175 13.2105 115.32 12.8763 115.393 12.484C115.466 12.0917 115.51 11.6849 115.51 11.2635C115.503 10.8349 115.466 10.4281 115.379 10.0431ZM124.324 16.5305C123.602 16.5305 122.96 16.407 122.383 16.1527C121.807 15.8984 121.384 15.419 121.114 14.6998C120.997 14.3583 120.924 14.0096 120.895 13.6536C120.866 13.2977 120.851 12.9417 120.851 12.5857V8.27773H119.012V6.04019H120.851V2.18262H123.733V6.04019H126.418V8.28499H123.741V12.099C123.741 12.3315 123.741 12.6148 123.748 12.9635C123.755 13.3049 123.828 13.581 123.974 13.7844C124.105 13.9588 124.266 14.0823 124.47 14.1622C124.674 14.2421 124.886 14.2929 125.12 14.3147C125.346 14.3365 125.579 14.3438 125.813 14.3293C126.046 14.3147 126.243 14.3075 126.418 14.3075V16.545H124.324V16.5305Z"
        fill="#297CB9" />
    <path
        d="M10.7524 5.30118C10.3308 5.30118 9.99348 5.8049 9.99348 6.42056C9.99348 7.03621 10.3308 7.53993 10.7524 7.53993C11.174 7.53993 11.5112 7.03621 11.5112 6.42056C11.5112 5.8049 11.1646 5.30118 10.7524 5.30118ZM5.55266 5.30118C5.13107 5.30118 4.79379 5.8049 4.79379 6.42056C4.79379 7.03621 5.13107 7.53993 5.55266 7.53993C5.97426 7.53993 6.31154 7.03621 6.31154 6.42056C6.31154 5.8049 5.96489 5.30118 5.55266 5.30118ZM15.6335 3.91129L15.5773 3.90197V2.54006C15.5773 1.44867 14.6873 0.5625 13.5911 0.5625H2.71391C1.61776 0.571828 0.727717 1.458 0.727717 2.54006V3.89264L0.671505 3.91129C0.352964 3.95793 0.109375 4.24711 0.109375 4.56426V6.77503C0.109375 7.09218 0.352964 7.38135 0.671505 7.42799L0.727717 7.43732V9.65741C0.727717 10.7488 1.61776 11.635 2.71391 11.635H5.81499V12.1573H5.55266L4.5783 12.5491V12.6891H4.21292V13.0715C3.45405 13.1088 2.85444 13.7338 2.85444 14.4987V14.9278H2.70454C2.52653 15.105 2.42347 15.2076 2.24547 15.3849V16.6535L2.70454 17.1106H3.6789L3.87564 16.9147V16.2617H4.25976V15.2263C4.25976 15.0677 4.1286 14.9278 3.95996 14.9278H3.77259V14.4987C3.77259 14.2468 3.95996 14.0323 4.20355 13.995V14.508H4.62515V16.0378L5.13107 16.6162V17.4091C4.73757 17.4091 4.30661 17.4464 3.74448 17.9315V18.7243H7.90424V17.1852H8.41015V18.7243H12.5699V17.9315C12.0078 17.4464 11.5768 17.4091 11.1833 17.4091V16.6162L11.7173 16.0378V14.508H12.1202V13.995C12.3732 14.023 12.5605 14.2375 12.5605 14.4987V14.9278H12.3825C12.2233 14.9278 12.0827 15.0584 12.0827 15.2263V16.2804H12.4669V16.9333L12.6636 17.1292H13.638C13.816 16.952 13.919 16.8494 14.097 16.6722V15.4035L13.638 14.9465H13.4881V14.5174C13.4881 13.7525 12.8791 13.1275 12.1202 13.0902V12.7077H11.7548V12.5678L10.7805 12.176H10.5088V11.6536H13.5724C14.6685 11.6536 15.5586 10.7675 15.5586 9.67607V7.43732L15.6148 7.42799C15.9333 7.38135 16.1769 7.09218 16.1769 6.77503V4.56426C16.1956 4.24711 15.9427 3.95793 15.6335 3.91129ZM15.0527 9.20966C15.0527 10.0772 14.3406 10.7861 13.4693 10.7861H2.8357C1.9644 10.7861 1.25237 10.0772 1.25237 9.20966V2.8852C1.25237 2.01769 1.9644 1.30875 2.8357 1.30875H13.4693C14.3406 1.30875 15.0527 2.01769 15.0527 2.8852V9.20966Z"
        fill="white" />
</svg>
